<?xml version="1.0" encoding="utf-8"?>
<!-- Generator: Adobe Illustrator 22.0.1, SVG Export Plug-In . SVG Version: 6.00 Build 0)  -->
<svg version="1.1" id="Слой_1" xmlns="http://www.w3.org/2000/svg" xmlns:xlink="http://www.w3.org/1999/xlink" x="0px" y="0px"
	 viewBox="0 0 432.4 326.4" style="enable-background:new 0 0 432.4 326.4;" xml:space="preserve">
<path d="M383.3,228.6H49.1c-27-0.1-49,21.7-49.1,48.7c-0.1,27,21.7,49,48.7,49.1c0.1,0,0.3,0,0.4,0h334.2c27,0.1,49-21.7,49.1-48.7
	c0.1-27-21.7-49-48.7-49.1C383.6,228.6,383.5,228.6,383.3,228.6z M383.3,314.4H49.1c-20.4,0.1-37-16.3-37.1-36.7
	c-0.1-20.4,16.3-37,36.7-37.1c0.1,0,0.3,0,0.4,0h334.2c20.4-0.1,37,16.3,37.1,36.7c0.1,20.4-16.3,37-36.7,37.1
	C383.6,314.4,383.5,314.4,383.3,314.4z" fill="white"/>
<path d="M278.5,0H153.9c-5.2,0-10,2.6-12.8,7l-40,62.7c-0.6,1-0.9,2.1-0.9,3.2v126.8c0,8.4,6.8,15.2,15.2,15.2h201.7
	c8.4,0,15.2-6.8,15.2-15.2V72.9c0-1.1-0.3-2.3-0.9-3.2L291.3,7C288.5,2.6,283.7,0,278.5,0z M281.2,13.5l34.1,53.5h-93.1V12h56.3
	C279.6,12,280.6,12.6,281.2,13.5L281.2,13.5z M151.3,13.5c0.6-0.9,1.6-1.5,2.7-1.5h56.3v54.9h-93.1L151.3,13.5z M317.1,202.9H115.4
	c-1.7,0-3.2-1.4-3.2-3.2V78.9h208v120.8C320.2,201.5,318.8,202.9,317.1,202.9L317.1,202.9z" fill="white"/>
<path d="M240.5,122.7c-2.3-2.3-6.1-2.3-8.5,0c0,0,0,0,0,0l-21.2,21.2c-2.3,2.3-2.3,6.1,0,8.5c2.3,2.3,6.1,2.3,8.5,0l11-11v47.6
	c0,3.3,2.7,6,6,6s6-2.7,6-6v-47.6l11,11c2.3,2.3,6.1,2.3,8.5,0c2.3-2.3,2.3-6.1,0-8.5L240.5,122.7z" fill="white"/>
<path d="M180.5,122.7c-2.3-2.3-6.1-2.3-8.5,0c0,0,0,0,0,0l-21.2,21.2c-2.3,2.3-2.3,6.1,0,8.5c2.3,2.3,6.1,2.3,8.5,0l11-11v47.6
	c0,3.3,2.7,6,6,6s6-2.7,6-6v-47.6l11,11c2.3,2.3,6.1,2.3,8.5,0s2.3-6.1,0-8.5L180.5,122.7z" fill="white"/>
<path d="M297.7,95.4h-20.2c-3.3,0-6,2.7-6,6s2.7,6,6,6h20.2c3.3,0,6-2.7,6-6S301,95.4,297.7,95.4L297.7,95.4z" fill="white"/>
<path d="M297.7,115.4h-20.2c-3.3,0-6,2.7-6,6s2.7,6,6,6h20.2c3.3,0,6-2.7,6-6S301,115.4,297.7,115.4L297.7,115.4z" fill="white"/>
<path d="M120.8,250c-15.2,0-27.4,12.3-27.4,27.4c0,15.2,12.3,27.4,27.4,27.4c15.2,0,27.4-12.3,27.4-27.4l0,0
	C148.2,262.3,135.9,250,120.8,250z M120.8,292.9c-8.5,0-15.4-6.9-15.4-15.4c0-8.5,6.9-15.4,15.4-15.4c8.5,0,15.4,6.9,15.4,15.4
	c0,0,0,0,0,0C136.2,286,129.3,292.9,120.8,292.9z" fill="white"/>
<path d="M253.4,250c-15.2,0-27.4,12.3-27.4,27.4c0,15.2,12.3,27.4,27.4,27.4c15.2,0,27.4-12.3,27.4-27.4
	C280.9,262.3,268.6,250,253.4,250z M253.4,292.9c-8.5,0-15.4-6.9-15.4-15.4c0-8.5,6.9-15.4,15.4-15.4c8.5,0,15.4,6.9,15.4,15.4
	c0,0,0,0,0,0C268.9,286,262,292.9,253.4,292.9z" fill="white"/>
<path d="M319.8,250c-15.2,0-27.4,12.3-27.4,27.4c0,15.2,12.3,27.4,27.4,27.4c15.2,0,27.4-12.3,27.4-27.4
	C347.2,262.3,334.9,250,319.8,250z" fill="white"/>
<path d="M386.1,250c-15.2,0-27.4,12.3-27.4,27.4c0,15.2,12.3,27.4,27.4,27.4c15.2,0,27.4-12.3,27.4-27.4
	C413.6,262.3,401.3,250,386.1,250z" fill="white"/>
<path d="M54.4,250C39.3,250,27,262.3,27,277.5c0,15.2,12.3,27.4,27.4,27.4c15.2,0,27.4-12.3,27.4-27.4C81.8,262.3,69.6,250,54.4,250
	z M54.4,292.9c-8.5,0-15.4-6.9-15.4-15.4c0-8.5,6.9-15.4,15.4-15.4s15.4,6.9,15.4,15.4c0,0,0,0,0,0C69.8,286,62.9,292.9,54.4,292.9z
	" fill="white"/>
<path d="M187.1,250c-15.2,0-27.4,12.3-27.4,27.4c0,15.2,12.3,27.4,27.4,27.4c15.2,0,27.4-12.3,27.4-27.4
	C214.5,262.3,202.3,250,187.1,250z M187.1,292.9c-8.5,0-15.4-6.9-15.4-15.4c0-8.5,6.9-15.4,15.4-15.4c8.5,0,15.4,6.9,15.4,15.4
	c0,0,0,0,0,0C202.5,286,195.6,292.9,187.1,292.9z" fill="white"/>
</svg>
