<?xml version="1.0" encoding="utf-8"?>
<!-- Generator: Adobe Illustrator 22.0.1, SVG Export Plug-In . SVG Version: 6.00 Build 0)  -->
<svg version="1.1" id="Слой_1" xmlns="http://www.w3.org/2000/svg" xmlns:xlink="http://www.w3.org/1999/xlink" x="0px" y="0px"
	 viewBox="0 0 55.7 42" style="enable-background:new 0 0 55.7 42;" xml:space="preserve">
<path d="M55.3,7.8c-0.4-0.5-1-0.8-1.6-0.8H41.4c-1.7-5.3-7.3-8.2-12.5-6.5c-3.1,1-5.6,3.4-6.5,6.5H8.6L7.4,2.2C7,0.9,5.8,0,4.5,0H0
	v2h4.5c0.5,0,0.9,0.3,1,0.7l7.4,27.8c0.2,0.9,1,1.5,1.9,1.5h32.5c0.9,0,1.7-0.6,1.9-1.4l6.4-21C55.8,9,55.6,8.3,55.3,7.8z M31.8,2
	c4.4,0,8,3.6,8,8s-3.6,8-8,8s-8-3.6-8-8S27.4,2,31.8,2z M47.3,30H14.8L9.2,9h12.7c0,0.3,0,0.7,0,1c0,5.5,4.5,10,10,10s10-4.5,10-10
	c0-0.3,0-0.7,0-1h11.8L47.3,30z" fill="white"/>
<path d="M49,36c-0.8,0-1.6,0.4-2.2,1c-4.5-2.7-9.6-4-14.8-4c-5.2,0-10.3,1.3-14.8,4c-1.1-1.2-3-1.3-4.2-0.2s-1.3,3-0.2,4.2
	c1.1,1.2,3,1.3,4.2,0.2c0.6-0.6,1-1.4,1-2.2c0-0.1,0-0.1,0-0.2c8.6-5.1,19.4-5.1,28,0c0,0.1,0,0.1,0,0.2c0,1.7,1.3,3,3,3s3-1.3,3-3
	S50.7,36,49,36L49,36z M15,40c-0.6,0-1-0.4-1-1s0.4-1,1-1s1,0.4,1,1S15.6,40,15,40z M49,40c-0.6,0-1-0.4-1-1s0.4-1,1-1s1,0.4,1,1
	S49.6,40,49,40z" fill="white"/>
<rect x="33" y="26" width="13" height="2" fill="white"/>
<rect x="29" y="26" width="2" height="2" fill="white"/>
<g>
	<path d="M33.7,11.8v1.5H31v1.9h-2v-1.9h-0.7v-1.5H29V11h-0.7V9.4H29V5.1h2.9c1.1,0,1.9,0.1,2.3,0.3c0.5,0.2,0.9,0.5,1.2,1
		c0.3,0.5,0.4,1,0.4,1.6c0,0.5-0.1,0.9-0.2,1.2c-0.1,0.3-0.3,0.6-0.5,0.8s-0.5,0.4-0.7,0.5s-0.6,0.2-0.9,0.3
		c-0.3,0.1-0.7,0.1-1.1,0.1s-0.7,0-1.1,0H31v0.8H33.7z M31,9.4h0.1c1,0,1.6,0,1.8-0.1c0.2-0.1,0.4-0.2,0.6-0.4s0.2-0.5,0.2-0.8
		c0-0.3-0.1-0.6-0.3-0.8C33.3,7,33,6.9,32.7,6.8c-0.1,0-0.2,0-0.5,0c-0.2,0-0.6,0-1,0H31V9.4z" fill="white"/>
</g>
</svg>
