<?xml version="1.0" encoding="utf-8"?>
<!-- Generator: Adobe Illustrator 22.0.1, SVG Export Plug-In . SVG Version: 6.00 Build 0)  -->
<svg version="1.1" id="Слой_1" xmlns="http://www.w3.org/2000/svg" xmlns:xlink="http://www.w3.org/1999/xlink" x="0px" y="0px"
	 viewBox="0 0 62 62" style="enable-background:new 0 0 62 62;" xml:space="preserve">
<path d="M51.9,20.6c-0.1-0.2-0.4-0.4-0.6-0.5c-0.3-0.1-0.6,0-0.8,0.1l-6,4c-0.4,0.3-0.6,0.9-0.3,1.3L45,27c-1.9,0.5-3.9,0.4-5.7-0.1
	c-2.1-0.6-4.4-0.7-6.6-0.2l-8.8,2c-2.2-0.4-4.3-1.5-5.9-3.2l-0.5-0.5l0.3-0.6c0.3-0.5,0.1-1-0.3-1.3l-6-4C11.3,19,11,19,10.8,19.1
	c-0.3,0.1-0.5,0.2-0.6,0.5l-10,18c-0.3,0.5-0.1,1,0.3,1.3l6,4C6.6,43,6.8,43,7,43c0.1,0,0.2,0,0.2,0c0.3-0.1,0.5-0.2,0.6-0.5L8.1,42
	c0.5,1.5,1.1,3,1.8,4.4c-1.1,1.6-0.8,3.8,0.8,4.9c0.6,0.4,1.3,0.7,2.1,0.7h0.1c0,0,0,0,0.1,0c0,0,0,0,0,0v0.5c0,1.9,1.6,3.5,3.5,3.5
	h0.4c0.2,0,0.3,0,0.5-0.1c0,0.2,0.1,0.5,0.1,0.7c0.5,1.6,2.2,2.6,3.9,2.3c0,0.2,0.1,0.4,0.1,0.6l0,0.1c0.5,1.3,1.7,2.2,3,2.2l1.1,0
	h0.1c1.1,0,2.1-0.6,2.7-1.5l0.1-0.1l0.3,0.1c3.7,1.3,7.8,0.4,10.6-2.3c0.1,0,0.1,0,0.2,0c2,0,4-1,5.2-2.6l1-1.4
	c1.3-0.4,2.4-1.4,3.1-2.6l0.7-1c0.8-0.3,1.5-0.9,1.9-1.6c0.7-1.2,0.8-2.6,0.1-3.9l2.7-2.2c0.3,0.3,0.7,0.3,1.1,0.1l6-3
	c0.5-0.2,0.7-0.8,0.4-1.3c0,0,0,0,0,0L51.9,20.6z M33.2,28.7c1.8-0.4,3.7-0.4,5.6,0.1c2.4,0.7,4.9,0.7,7.3,0l7.2,12.3l-2.9,2.3
	c-4.4-3.5-9.1-6.6-14-9.3l0.8-0.1l-0.3-2l-3,0.5C31.9,32.8,29.9,33,28,33c-0.5,0-0.8,0.3-1,0.8c-0.5,1.9-2.2,3.2-4.2,3.2h-1.4
	l2.3-6.1L33.2,28.7z M6.7,40.6l-4.3-2.9l9-16.2l4.3,2.9L6.7,40.6z M12.8,50c-0.9,0-1.5-0.7-1.5-1.5c0-0.3,0.1-0.7,0.3-0.9l1.4-1.9
	c0.3-0.4,0.7-0.6,1.2-0.6h0.2c0.9,0,1.5,0.7,1.5,1.5V47c0,0.4-0.2,0.8-0.5,1.1L14,49.6c-0.3,0.3-0.7,0.5-1.1,0.5L12.8,50z M16.5,54
	c-0.8,0-1.5-0.7-1.5-1.5v-0.5c0-0.4,0.2-0.8,0.4-1l0,0c0,0,0,0,0,0l1.5-1.5c0,0,0,0,0,0l0,0l2-2c0.3-0.3,0.7-0.4,1-0.4h0.2
	c0.8,0,1.5,0.7,1.5,1.5c0,0.3-0.1,0.7-0.3,0.9l-3.2,3.9l0,0L18,53.5c-0.3,0.3-0.7,0.5-1.1,0.5L16.5,54z M20.8,57
	c-0.8,0-1.5-0.7-1.5-1.5c0-0.3,0.1-0.7,0.3-0.9l3.2-3.9l0,0l0.1-0.2c0.3-0.3,0.7-0.5,1.2-0.5c0.8,0,1.5,0.7,1.5,1.5
	c0,0.3-0.1,0.7-0.3,0.9l-3.3,3.9l0,0l0,0L22,56.5C21.7,56.9,21.2,57,20.8,57L20.8,57z M25.8,60l-1.1,0c-0.5,0-1-0.4-1.2-0.9
	l-0.1-0.1c-0.1-0.4-0.1-0.9,0.2-1.3l3.3-3.9l0.2-0.2c0.2-0.3,0.6-0.5,1-0.5h0.6c0.7,0,1.3,0.6,1.3,1.3c0,0.3-0.1,0.5-0.2,0.7
	l-2.9,4.4C26.6,59.8,26.2,60,25.8,60z M49.8,47.8c-0.6,1-1.9,1.3-2.8,0.7c0,0,0,0,0,0l-8.3-5.3l-1.1,1.7l8.3,5.3
	c0.4,0.2,0.8,0.4,1.2,0.5c-0.9,1.6-2.9,2.2-4.5,1.3c0,0,0,0,0,0l-7.1-3.9l-1,1.8l7.1,3.9c0.5,0.3,1.1,0.5,1.7,0.6l-0.1,0.1
	c-1.4,1.9-4,2.3-5.9,1.1l-3.8-2.3l-1.1,1.7l3.8,2.3c0.3,0.2,0.5,0.3,0.8,0.4c-2.1,1.5-4.8,1.9-7.3,1.1l1.7-2.6
	c1-1.5,0.6-3.6-0.9-4.6C30,51.2,29.4,51,28.7,51h-0.6c-0.1,0-0.3,0-0.4,0c0-0.2-0.1-0.5-0.1-0.7C27,49,25.7,48,24.2,48
	c-0.2,0-0.3,0-0.5,0.1c0-0.2-0.1-0.5-0.1-0.7C23,46,21.7,45,20.2,45H20c-0.8,0-1.5,0.3-2.1,0.7c-0.4-1.6-1.8-2.7-3.4-2.7h-0.2
	c-1.1,0-2.2,0.5-2.8,1.4l-0.1,0.2c-0.7-1.5-1.3-3.1-1.7-4.7l-0.1-0.3l7-12.6l0.1,0.1c1.5,1.5,3.3,2.6,5.2,3.2l-2.8,7.4
	c-0.2,0.5,0.1,1.1,0.6,1.3c0.1,0,0.2,0.1,0.4,0.1h2.9c2.6,0,4.9-1.6,5.9-4c1.4-0.1,2.8-0.2,4.2-0.4c5.8,2.9,11.2,6.4,16.3,10.5
	C50.1,45.8,50.3,46.9,49.8,47.8z M55.4,40.7l-9-15.4l4.3-2.9l9,16.1L55.4,40.7z" fill="white"/>
<path d="M19,12c0,6.6,5.4,12,12,12s12-5.4,12-12S37.6,0,31,0C24.4,0,19,5.4,19,12z M31,2c5.5,0,10,4.5,10,10s-4.5,10-10,10
	s-10-4.5-10-10C21,6.5,25.5,2,31,2z" fill="white"/>
<g>
	<path d="M33.1,14v1.5h-2.7v1.9h-2v-1.9h-0.7V14h0.7v-0.8h-0.7v-1.6h0.7V7.3h2.9c1.1,0,1.9,0.1,2.3,0.3c0.5,0.2,0.9,0.5,1.2,1
		c0.3,0.5,0.4,1,0.4,1.6c0,0.5-0.1,0.9-0.2,1.2c-0.1,0.3-0.3,0.6-0.5,0.8s-0.5,0.4-0.7,0.5S33.1,13,32.8,13
		c-0.3,0.1-0.7,0.1-1.1,0.1c-0.4,0-0.7,0-1.1,0h-0.3V14H33.1z M30.4,11.5h0.1c1,0,1.6,0,1.8-0.1c0.2-0.1,0.4-0.2,0.6-0.4
		s0.2-0.5,0.2-0.8c0-0.3-0.1-0.6-0.3-0.8C32.6,9.2,32.4,9.1,32,9c-0.1,0-0.2,0-0.5,0c-0.2,0-0.6,0-1,0h-0.2V11.5z" fill="white"/>
</g>
</svg>
