<?xml version="1.0" encoding="utf-8"?>
<!-- Generator: Adobe Illustrator 22.0.1, SVG Export Plug-In . SVG Version: 6.00 Build 0)  -->
<svg version="1.1" id="Слой_1" xmlns="http://www.w3.org/2000/svg" xmlns:xlink="http://www.w3.org/1999/xlink" x="0px" y="0px"
	 viewBox="0 0 74.1 51.1" style="enable-background:new 0 0 74.1 51.1;" xml:space="preserve">
<path d="M23,0v51.1h51.1V0H23z M69.6,2.6L64,8.2H33l-5.6-5.6L69.6,2.6z M57.7,40.2h-8.1l13.7-13.7v8.1L57.7,40.2z M63.3,36.5v3.8
	h-3.8L63.3,36.5z M47.7,40.2h-8.1l23.6-23.6v8.1L47.7,40.2z M37.8,40.2h-4v-4l25.4-25.4h4v4L37.8,40.2z M39.4,10.8h8.1L33.8,24.5
	v-8.1L39.4,10.8z M33.8,14.6v-3.8h3.8L33.8,14.6z M49.3,10.8h8.1L33.8,34.4v-8.1L49.3,10.8z M25.6,4.4l5.6,5.6v31l-5.6,5.6V4.4z
	 M27.4,48.5l5.6-5.6h31l5.6,5.6C69.6,48.5,27.4,48.5,27.4,48.5z M71.5,46.6L65.9,41V10l5.6-5.6V46.6z M9.1,10.5H18V7.9H9.1V10.5z
	 M4.3,18.7H18v-2.6H4.3V18.7z M0,26.8h18v-2.6H0V26.8z M4.3,34.9H18v-2.6H4.3V34.9z M9.1,43H18v-2.6H9.1V43z" fill="white" />
</svg>
