<?xml version="1.0" encoding="utf-8"?>
<!-- Generator: Adobe Illustrator 22.0.1, SVG Export Plug-In . SVG Version: 6.00 Build 0)  -->
<svg version="1.1" id="Слой_1" xmlns="http://www.w3.org/2000/svg" xmlns:xlink="http://www.w3.org/1999/xlink" x="0px" y="0px"
	 viewBox="0 0 26.1 24.5" style="enable-background:new 0 0 26.1 24.5;" xml:space="preserve">
<style type="text/css">
	.st0{fill:#FFFFFF;}
</style>
<g>
	<rect x="-0.3" y="11" transform="matrix(0.7875 -0.6163 0.6163 0.7875 -4.0389 11.2756)" class="st0" width="29.2" height="1"/>
	<path class="st0" d="M3.7,4.4L0.3,7.7v0.8h6v-1H2L4.6,5c0.5-0.5,0.9-1,1.1-1.4C5.9,3.2,6,2.8,6,2.3c0-0.7-0.3-1.3-0.8-1.7
		C4.7,0.2,4,0,3.1,0C2.4,0,1.8,0.1,1.3,0.3C0.8,0.6,0.3,0.9,0,1.3L0.8,2C1.3,1.4,2,1.1,3,1.1c0.6,0,1,0.1,1.3,0.4
		c0.3,0.2,0.5,0.6,0.5,1c0,0.3-0.1,0.6-0.2,0.9C4.4,3.6,4.1,4,3.7,4.4z"/>
	<polygon class="st0" points="11.6,8.5 12.8,8.5 12.8,6.4 14.4,6.4 14.4,5.4 12.8,5.4 12.8,3.6 11.7,3.6 11.7,5.4 8.4,5.4 12.5,0.1 
		11.2,0.1 6.9,5.6 6.9,6.4 11.6,6.4 	"/>
	<polygon class="st0" points="16.2,18.6 17.3,18.6 17.3,17.1 21.2,17.1 17.9,24.5 19.1,24.5 22.5,16.9 22.5,16.1 16.2,16.1 	"/>
</g>
</svg>
