<?xml version="1.0" encoding="utf-8"?>
<!-- Generator: Adobe Illustrator 22.0.1, SVG Export Plug-In . SVG Version: 6.00 Build 0)  -->
<svg version="1.1" id="Слой_1" xmlns="http://www.w3.org/2000/svg" xmlns:xlink="http://www.w3.org/1999/xlink" x="0px" y="0px"
	 viewBox="0 0 84 60" style="enable-background:new 0 0 84 60;" xml:space="preserve">
<g transform="translate(0,-952.36218)">
	<path d="M9,952.4c-5,0-9,4.2-9,9.2v41.5c0,5,4,9.3,9,9.3h66c5,0,9-4.2,9-9.3v-41.5c0-5-4-9.2-9-9.2L9,952.4L9,952.4z M9.4,958.4
		h65.2l-30.8,29.3c-1.1,1.1-2.4,1.1-3.5,0L9.4,958.4z M6,963.4l20.4,19.4L6,1003.1V963.4z M78,963.4v39.8l-20.4-20.4L78,963.4z
		 M53.3,986.8l19.5,19.5H11.2l19.5-19.5l5.4,5.1c3.3,3.1,8.5,3.1,11.8,0L53.3,986.8z"/>
</g>
</svg>
