<?xml version="1.0" encoding="utf-8"?>
<!-- Generator: Adobe Illustrator 22.0.1, SVG Export Plug-In . SVG Version: 6.00 Build 0)  -->
<svg version="1.1" id="Слой_1" xmlns="http://www.w3.org/2000/svg" xmlns:xlink="http://www.w3.org/1999/xlink" x="0px" y="0px"
	 viewBox="0 0 293.4 85.9" style="enable-background:new 0 0 293.4 85.9;" xml:space="preserve">
<style type="text/css">
	.st0{fill:#282828;}
</style>
<g>
	<path class="st0" d="M30.9,16V85H14.2V16H0V0.9h45.1V16H30.9z"/>
</g>
<g>
	<path class="st0" d="M96.9,85V41.2L87.7,70h-8.6l-9-28.7V85H53.3v-84h14.8l15.3,41.2L98.8,0.9h14.9v84H96.9z"/>
	<path class="st0" d="M167.2,77.4c-3.8,4.7-9.3,8.5-18.4,8.5s-14.6-3.8-18.4-8.5c-5.9-7.2-6.3-18.3-6.3-34.5
		c0-16.2,0.4-27.3,6.3-34.5c3.8-4.7,9.3-8.5,18.4-8.5s14.6,3.8,18.4,8.5c5.9,7.2,6.3,18.3,6.3,34.5
		C173.5,59.1,173.1,70.2,167.2,77.4z M154.5,18.4c-0.9-1.9-2.6-3.3-5.7-3.3s-4.7,1.4-5.7,3.3c-2,3.9-2.2,14.4-2.2,24.5
		c0,10.1,0.2,20.7,2.2,24.5c0.9,1.9,2.6,3.3,5.7,3.3s4.7-1.4,5.7-3.3c2-3.9,2.2-14.4,2.2-24.5C156.7,32.8,156.5,22.3,154.5,18.4z"/>
	<path class="st0" d="M237.6,80.5c-3.8,3.7-9.3,5.4-15,5.4c-5.7,0-11.2-1.8-15-5.4c-5.5-5.4-6-11.7-6-19.6c0-4.6,0.4-9.4,2.2-13.3
		c1.2-2.4,2.8-4.2,5.1-6c-2-1.7-3.4-3.4-4.5-5.5c-1.9-4-2.2-8.1-2.2-12.5c0-7.2,1.2-13.3,6-18.2c3.7-3.7,8.6-5.3,14.3-5.3
		c5.7,0,10.9,1.7,14.5,5.3c4.8,4.8,6,11,6,18.2c0,4.4-0.4,8.5-2.2,12.5c-1.1,2.1-2.5,3.9-4.5,5.5c2.2,1.8,3.9,3.7,5.1,6
		c1.9,3.9,2.2,8.7,2.2,13.3C243.6,68.8,243.1,75.1,237.6,80.5z M226.4,49.9c-0.8-1.2-2.2-1.8-3.8-1.8s-3,0.6-3.8,1.8
		c-1.4,1.9-1.4,5.4-1.4,10s0,8.1,1.4,10c0.8,1.2,2.2,1.8,3.8,1.8s3-0.6,3.8-1.8c1.4-1.9,1.4-5.4,1.4-10S227.8,51.8,226.4,49.9z
		 M219.6,33.9c0.7,0.7,1.8,1.1,3,1.1c1.2,0,2.2-0.4,3-1.1c1.2-1.2,1.7-2.8,1.7-9.3s-0.5-8.1-1.7-9.3c-0.7-0.7-1.8-1.1-3-1.1
		c-1.2,0-2.2,0.4-3,1.1c-1.2,1.2-1.7,2.8-1.7,9.3S218.4,32.7,219.6,33.9z"/>
	<path class="st0" d="M287.6,80.5c-3.8,3.7-9.3,5.4-15,5.4c-5.7,0-11.2-1.8-15-5.4c-3.8-3.5-5.8-7.8-5.8-15.1V20.5
		c0-7.3,2-11.6,5.8-15.1c3.8-3.7,9.3-5.4,15-5.4c5.7,0,11.2,1.8,15,5.4c3.8,3.5,5.8,7.8,5.8,15.1v44.8
		C293.4,72.7,291.4,76.9,287.6,80.5z M277.6,19.9c0-3.9-2.1-5.8-5-5.8s-5,1.9-5,5.8v46c0,3.9,2.1,5.8,5,5.8s5-1.9,5-5.8V19.9z"/>
</g>
</svg>
