<?xml version="1.0" encoding="utf-8"?>
<!-- Generator: Adobe Illustrator 22.0.1, SVG Export Plug-In . SVG Version: 6.00 Build 0)  -->
<svg version="1.1" id="Слой_1" xmlns="http://www.w3.org/2000/svg" xmlns:xlink="http://www.w3.org/1999/xlink" x="0px" y="0px"
	 viewBox="0 0 57 57" style="enable-background:new 0 0 57 57;" xml:space="preserve">
<style type="text/css">
	.st0{fill:#FFFFFF;}
</style>
<g>
	<path class="st0" d="M36.1,26.2l-8.8-5.9c-0.7-0.4-1.5-0.5-2.2-0.1c-0.7,0.4-1.1,1.1-1.1,1.9v11.8c0,0.8,0.4,1.5,1.1,1.9
		c0.3,0.2,0.7,0.2,1,0.2c0.4,0,0.8-0.1,1.2-0.4l8.8-5.9c0.6-0.4,0.9-1.1,0.9-1.8C37,27.3,36.6,26.6,36.1,26.2z M35.5,28.9l-8.8,5.9
		c-0.3,0.2-0.8,0.3-1.2,0.1c-0.4-0.2-0.6-0.6-0.6-1V22.1c0-0.4,0.2-0.8,0.6-1c0.2-0.1,0.3-0.1,0.5-0.1c0.2,0,0.4,0.1,0.6,0.2
		l8.8,5.9c0.3,0.2,0.5,0.6,0.5,0.9C36,28.4,35.8,28.7,35.5,28.9z"/>
	<path class="st0" d="M28.5,0C12.8,0,0,12.8,0,28.5S12.8,57,28.5,57S57,44.2,57,28.5S44.2,0,28.5,0z M28.5,56C13.3,56,1,43.7,1,28.5
		S13.3,1,28.5,1S56,13.3,56,28.5S43.7,56,28.5,56z"/>
</g>
</svg>
