<?xml version="1.0" encoding="utf-8"?>
<!-- Generator: Adobe Illustrator 22.0.1, SVG Export Plug-In . SVG Version: 6.00 Build 0)  -->
<svg version="1.1" id="Слой_1" xmlns="http://www.w3.org/2000/svg" xmlns:xlink="http://www.w3.org/1999/xlink" x="0px" y="0px"
	 viewBox="0 0 49.8 69.8" style="enable-background:new 0 0 49.8 69.8;" xml:space="preserve">
<path d="M40.6,0H9.2C4.1,0,0,4.1,0,9.2v51.4c0,5.1,4.1,9.2,9.2,9.2h31.4c5.1,0,9.2-4.1,9.2-9.2V9.2C49.8,4.1,45.6,0,40.6,0z M4,12.5
	h41.8v39.6H4V12.5z M9.2,4h31.4c2.6,0,4.8,1.9,5.1,4.5H4.1C4.4,5.9,6.6,4,9.2,4z M40.6,65.8H9.2c-2.9,0-5.2-2.3-5.2-5.2l0,0v-4.6
	h41.8v4.6C45.8,63.5,43.4,65.8,40.6,65.8z"/>
<circle cx="24.9" cy="60.6" r="4.1"/>
</svg>
