<?xml version="1.0" encoding="utf-8"?>
<!-- Generator: Adobe Illustrator 22.0.1, SVG Export Plug-In . SVG Version: 6.00 Build 0)  -->
<svg version="1.1" id="Слой_1" xmlns="http://www.w3.org/2000/svg" xmlns:xlink="http://www.w3.org/1999/xlink" x="0px" y="0px"
	 viewBox="0 0 279.9 285.7" style="enable-background:new 0 0 279.9 285.7;" xml:space="preserve">
<style type="text/css">
	.st0{fill:none;stroke:#000000;stroke-width:2.126;stroke-linejoin:round;stroke-miterlimit:22.9256;}
	.st1{fill:none;stroke:#000000;stroke-width:0.5669;stroke-miterlimit:22.9256;}
	.st2{fill-rule:evenodd;clip-rule:evenodd;}
	.st3{fill:none;stroke:#000000;stroke-width:2.126;stroke-miterlimit:22.9256;}
	.st4{fill-rule:evenodd;clip-rule:evenodd;fill:#07000A;}
</style>
<polygon class="st0" points="67.4,6.1 67.3,3.2 99.4,1.1 99.3,3.8 "/>
<polygon class="st0" points="99.3,3.8 99.4,1.1 250.6,5.3 250.6,7.9 "/>
<polygon class="st0" points="69.1,43.1 69,38 25.8,39.5 25.8,44.6 "/>
<polygon class="st0" points="69.1,43.1 28.7,44.5 29.1,80.1 69.3,81.2 "/>
<polygon class="st0" points="69.3,81.2 29.1,80.1 18.1,81.4 "/>
<polygon class="st0" points="18.1,81.4 69.3,81.2 69.3,84.3 17.5,83.8 "/>
<polygon class="st0" points="254.7,251.5 254.9,204.9 246.7,213.7 247.2,249.7 "/>
<polygon class="st0" points="267.4,248.5 262.2,241.2 254.7,251.5 257.4,262.2 "/>
<polygon class="st0" points="257.4,262.2 267.4,248.5 278.8,247.1 269.7,261 "/>
<path d="M63.3,243.8l0,2.2l-20.8,2.3l-16.1-4.6l10.8-1.1c-2.2-0.4-4.3-0.9-6.4-1.5l-10.2,1c-0.5,0-0.9,0.5-1,1c0,0.5,0.3,1,0.8,1.1
	l21.6,6.2c0.1,0,0.2,0,0.3,0c0,0,0.1,0,0.1,0l22-2.5c0.5-0.1,1-0.5,0.9-1.1l0-3.2C64.7,243.8,64,243.8,63.3,243.8z"/>
<path d="M31.6,241.4l-10.7,0.8l-1.2-0.3l9.2-0.8l1.6,0.1c-0.6-0.2-1.1-0.4-1.7-0.6l0-1.7c0,0-0.1,0-0.1,0l-14.9,1.4
	c-0.5,0-0.9,0.5-1,1c0,0.5,0.3,1,0.8,1.1l6.9,2c0.1,0,0.2,0,0.3,0c0,0,0.1,0,0.1,0l18.2-1.3C36.5,242.6,34,242.1,31.6,241.4z"/>
<polygon points="100.3,84.8 100.3,84.8 100.3,83.6 "/>
<path class="st0" d="M22.7,86.2l-0.3-2.3l-9-0.4c-0.3,2-0.7,4-1,6c-0.2,1.5,0.5,4,2.6,2.5c0.8-0.6,0-3.2,2.5-3.5
	c1.9-0.2,2.3,0.6,2.7,2l3,10.2c0.6,1.9,0.9,2.3,2.9,2.3c0-4.5,0.1-8.9,0.1-13.4c-1.2-0.4-1.9-0.6-2.3-1
	C23.6,88.1,23.3,87.5,22.7,86.2z"/>
<path d="M68.3,93.3l0,7.2c0.2,0.5,0.4,0.9,0.8,1.2c0.3,0.3,0.7,0.3,1.3,0.4l-0.1-10.3c-0.6,0.1-1.1,0.2-1.5,0.6
	C68.7,92.5,68.5,92.9,68.3,93.3z"/>
<path class="st0" d="M68.9,89.5c-1.3,0.6-2.1,1.1-2.6,1.9c-0.7,1-0.9,2.6-1,4.3c0,1.5,0.1,3.1,0.2,4.5c0.1,1.4,0.2,2.1,0.7,2.7
	c1,1.1,2.3,1.5,3.8,1.7c1.5,0.2,3,0.1,4.3,0.1c0.5,0.1,1-0.2,1.2-0.6c0.2-0.4,0.2-0.9,0-1.3c-0.5-1.1-2.1-0.7-3.1-0.6
	c-1.7,0-2.6,0.1-3.1-0.3c-1.5-1.2-1.2-4.4-1.2-6.1c0-1.7,0.3-2.7,1-3.3c1.1-1,2.9-0.5,5.2-0.6c1.2,0.1,1.7-2.7-0.3-2.6
	C72.2,89.4,70.6,89.2,68.9,89.5z"/>
<g>
	<path d="M101.2,3.8c0-0.3-0.1-0.6-0.3-0.8c-0.2-0.2-0.5-0.3-0.8-0.3L68.7,4.9c-0.6,0-1,0.5-1,1.1l0.6,83.8c0.2-0.1,0.4-0.2,0.6-0.3
		c0.5-0.1,1-0.1,1.5-0.2L69.9,7l29.2-2l0.3,211.4l-28.1-6.4l0-1.3l-1.1-0.1l0,2.2l-1.1-0.3l0,0.3c0,0.5,0.3,0.9,0.8,1l30.2,6.9
		c0.1,0,0.2,0,0.2,0c0.2,0,0.5-0.1,0.7-0.2c0.3-0.2,0.4-0.5,0.4-0.8L101.2,3.8z"/>
	<path d="M70.5,104.5c-0.2,0-0.4,0-0.5,0c-0.5-0.1-1.1-0.2-1.6-0.3l0.6,94.4l2.1,0.2L70.5,104.5z"/>
</g>
<polygon class="st0" points="66.5,198.3 74.5,199.1 74.5,208.9 70.2,208.5 70.2,210.8 62.8,209 62.7,205.1 "/>
<path d="M101.7,206.3l3.9,8.2l0.3,2.8l9.2-1l-1.5-0.3c-0.1,0-0.2,0-0.3,0l-5.4,0.6l-0.3-2.5c0-0.1,0-0.2-0.1-0.4l-4.2-8.8
	c-0.1-0.3-0.4-0.5-0.7-0.6l-2.2-0.5l0,2.2L101.7,206.3z"/>
<path d="M248.9,197.6l0-5.9h1.8l5,8.4l-0.1,2.3l-1,0.6l-0.2,0l3.1,0.5c0.1-0.1,0.1-0.3,0.1-0.5l0.1-3.2c0-0.2,0-0.4-0.2-0.6
	l-5.5-9.2c-0.2-0.3-0.5-0.5-0.9-0.5l-3.5,0c-0.6,0-1.1,0.5-1.1,1.1l0,6l-1,0.1l0,2.1l2.1-0.2C248.4,198.6,248.9,198.2,248.9,197.6z"
	/>
<polygon class="st0" points="96.6,218.2 104.4,221.3 261.6,204.2 249.2,202.3 169.4,210.5 "/>
<polygon class="st0" points="97,218.1 104.4,221.3 104.7,280.8 97.8,278.9 "/>
<polygon class="st0" points="97,218.3 63.8,209.9 68.7,220.8 97.1,228 "/>
<polygon points="72.9,254.1 97.4,251 97.4,248.8 72.8,251.9 "/>
<polygon points="72.9,254.1 97.4,251 97.4,248.8 72.8,251.9 "/>
<path d="M97.3,240.1l-2.1,0.2l-1.7,0.2c-6.7,0.6-13.8,1.3-20.9,1.8l0,2.1c7.2-0.5,14.3-1.1,21-1.8l1.7-0.2l1.9-0.2L97.3,240.1z"/>
<polygon class="st0" points="68.7,220.8 72.3,221.7 72.9,258 69.6,257.2 "/>
<g>
	<path d="M186.5,238.5c-0.1-0.6-0.6-1-1.2-0.9l-78.4,10l0,2.1l77-9.8l0.1,5l-77,9.7l0,2.1l78.2-9.9c0.5-0.1,0.9-0.5,0.9-1.1
		l-0.1-6.3C186.3,239.3,186.5,238.9,186.5,238.5z"/>
</g>
<polygon class="st0" points="104.7,280.8 104.4,226.4 106.8,229 107.1,279.8 "/>
<g>
	<path d="M175,221.5l0,7.8c-5.6,1.8-11.1,2.6-17,3.4c-1,0.1-2.1,0.3-3.1,0.4l-48.1,5.8l0,2.1l48.3-5.8c1.1-0.2,2.1-0.3,3.2-0.4
		c6.2-0.9,12.1-1.7,18.1-3.7c0.4-0.1,0.7-0.6,0.7-1l0-8.8L175,221.5z"/>
</g>
<polygon class="st0" points="104.4,226.4 106.8,229 246.7,213.7 254.9,204.9 104.4,221.3 "/>
<polygon class="st0" points="127.5,268 112.9,269.8 105.4,284.6 120.3,282.3 "/>
<polygon class="st0" points="116.6,269.3 122.6,259.3 127.5,268 "/>
<polygon class="st0" points="107.7,279.9 107.1,279.8 107.1,267.9 114.9,269.6 112.9,269.8 "/>
<path d="M108.7,279.5c-0.1-0.3-0.4-0.5-0.7-0.6l-3.4-1.1l0,2.2l1.6,0.5l-1.4,2.7L5.4,251.5l7.6-1.4l0,0.8c0,0.5,0.3,0.9,0.7,1
	L97.8,278l0-2.2l-27.9-8.7l0,1.5l-5.2-1.5l0-1.7l-49.6-15.4l0-1.3c0-0.3-0.1-0.6-0.4-0.8c-0.2-0.2-0.6-0.3-0.9-0.2l-12.9,2.4
	c-0.5,0.1-0.8,0.5-0.9,1c0,0.5,0.3,0.9,0.7,1.1l104.3,33.3c0.1,0,0.2,0.1,0.3,0.1c0.4,0,0.8-0.2,0.9-0.6l2.4-4.7
	C108.8,280.1,108.8,279.8,108.7,279.5z"/>
<path d="M98.7,264.8c0-0.5-0.3-0.9-0.8-1l-27.6-7.6l-0.7-0.2l0.1,2.2l0,0l26.9,7.4l0.1,9.1l-26.8-8.1l0,1.9l-5.2-1.5l0-2l-49.6-15
	l-0.1-7.4l49.5,14.2l0-2.2l-50.3-14.4c-0.3-0.1-0.7,0-0.9,0.2c-0.3,0.2-0.4,0.5-0.4,0.9l0.1,9.6c0,0.5,0.3,0.9,0.8,1l83.7,25.4
	c0.1,0,0.2,0,0.3,0c0.2,0,0.5-0.1,0.6-0.2c0.3-0.2,0.4-0.5,0.4-0.9L98.7,264.8z"/>
<g>
	<path d="M64.5,253l-3.4,0.4c-0.5,0.1-0.9,0.5-0.9,1c0,0.5,0.3,1,0.8,1.1l3.6,1.1L64.5,253z"/>
	<path d="M97.5,255.8l-19.8,2.5l-4.8-1.4l0,1.2l-3.3-0.8l0,0.9l7.7,2.3c0.1,0,0.2,0,0.3,0c0,0,0.1,0,0.1,0l19.8-2.5L97.5,255.8z"/>
</g>
<path d="M64.5,253l-3.9,0.5l-1.2-0.3l5.1-0.6l0-2.1l-10.5,1.3c-0.5,0.1-0.9,0.5-0.9,1s0.3,1,0.8,1.1l6.5,1.9c0.1,0,0.2,0,0.3,0
	c0,0,0.1,0,0.1,0l3.9-0.5L64.5,253z"/>
<path d="M64.3,242.7c-7,0.3-14,0.3-20.6-0.3c-5.3-0.4-9.8-1.3-13.9-2.7L27.3,84.9l42,0.4c0,0,0,0,0,0l0-2.1l-43.1-0.4
	c-0.3,0-0.6,0.1-0.8,0.3c-0.2,0.2-0.3,0.5-0.3,0.8l2.6,156.6c0,0.4,0.3,0.8,0.7,1c4.4,1.6,9.3,2.6,15.1,3c4,0.3,8.2,0.5,12.4,0.5
	c2.8,0,5.6-0.1,8.4-0.2L64.3,242.7z"/>
<polygon class="st0" points="63.8,209.9 68.7,220.8 69.9,268.6 64.7,267.1 "/>
<polygon points="72.9,249.4 72.8,249.4 72.8,251.5 79.1,250.8 "/>
<polygon class="st0" points="80.3,244.9 72.7,243.3 72.8,249.4 80.4,251.1 "/>
<g>
	<polygon points="88.6,249.6 97.4,248.6 97.3,246.4 97.2,246.4 88.6,247.5 	"/>
	<polygon points="80.5,248.5 80.3,248.5 80.4,250.6 86.4,249.9 	"/>
</g>
<polygon class="st0" points="80.3,244.9 88.6,244.1 88.6,250.4 80.3,248.4 "/>
<polygon class="st0" points="213.7,217.3 201.6,218.6 201.1,240.1 213.2,242.7 "/>
<line class="st0" x1="208.3" y1="217.9" x2="207.8" y2="241.5"/>
<polygon class="st0" points="186,236.8 166.2,232.6 158.3,233.8 165.1,235.7 172.1,234.1 172.2,238.5 185.8,236.8 "/>
<polygon class="st0" points="165.1,235.7 172.1,234.1 172.1,240.4 165.1,239.5 "/>
<path d="M192.2,236.8l-5.7-1c-0.1,0-0.2,0-0.3,0l-14,1.7l0,2.9l-7-0.8l0-1.3l0,0l0,3l-8.3-2l-49.9,6l0,2.1l26.7-3.2l-26.7,3.4l0,2.1
	l85.2-10.9c0.5-0.1,0.9-0.5,0.9-1S192.7,236.9,192.2,236.8z"/>
<polygon class="st0" points="158.8,233.7 165.1,235.7 165.1,241.3 142.1,235.8 152.8,234.5 "/>
<g>
	<path d="M261.5,203.1l-0.4,0c0,0,0,0,0,0l-6.2,0.7c-0.5,0.1-0.9,0.5-0.9,1l-0.3,18.5l0.1,27.9l1.1,0.2l1.1-1.5l-0.1-26.6l0.3-17.5
		l4.1-0.4l-0.1,38.8l2.1-3l0.1-36.3c0.3-0.2,0.5-0.6,0.4-1C262.6,203.5,262.1,203,261.5,203.1z"/>
	<polygon points="256.9,260.3 257.3,261.9 257.3,261.9 	"/>
	<polygon points="255.8,255.9 254.7,251.5 255.8,255.9 	"/>
</g>
<polygon class="st0" points="184.9,238.7 190.9,238 254.7,251.5 257.4,262.2 185.1,245.8 "/>
<path d="M33.7,169c-0.3-0.6-0.4-1.4-0.4-2.2c0-0.8,0.2-1.5,0.4-2.1l0.5,0.8c-0.1,0.4-0.2,0.9-0.2,1.4s0.1,1,0.2,1.4L33.7,169z
	 M37.2,170.4c-0.4,0.4-0.9,0.6-1.5,0.5c-0.6-0.1-1.2-0.5-1.6-1.1l0.5-0.6c0.3,0.5,0.7,0.8,1.2,0.9c0.4,0.1,0.7-0.1,1-0.4L37.2,170.4
	z M37.6,165c0.4,0.7,0.6,1.6,0.6,2.5c0,0.9-0.2,1.7-0.6,2.3l-0.5-0.8c0.2-0.4,0.3-1,0.3-1.6c0-0.6-0.1-1.2-0.3-1.7L37.6,165z
	 M35.7,163.4c0.5,0.1,1,0.4,1.5,0.9l-0.5,0.6c-0.3-0.4-0.6-0.6-1-0.6c-0.4-0.1-0.9,0.1-1.2,0.5l-0.5-0.7
	C34.5,163.6,35.1,163.3,35.7,163.4z"/>
<path d="M34.7,167.5l-4.5-0.6l0-0.8l4.5,0.6V167.5z M36,168.3l0,6.7l-0.7-0.1l0-6.7L36,168.3z M36.5,166.9l4.5,0.6l0,0.8l-4.5-0.6
	V166.9z M36,159.3l0,7l-0.7-0.1l0-7L36,159.3z"/>
<path class="st1" d="M56.4,111.6h2.1c0.7,0,1.3,0.6,1.3,1.3v2.8c0,0.7-0.6,1.3-1.3,1.3h-2.1c-0.7,0-1.3-0.6-1.3-1.3v-2.8
	C55.1,112.2,55.7,111.6,56.4,111.6z"/>
<path d="M58.4,112h-2.1c-0.2,0-0.4,0.1-0.6,0.2c-0.1,0.1-0.2,0.4-0.2,0.6v2.8c0,0.2,0.1,0.4,0.2,0.6c0.2,0.1,0.4,0.2,0.6,0.2h2.1
	c0.2,0,0.4-0.1,0.6-0.2c0.1-0.2,0.2-0.4,0.2-0.6v-2.8c0-0.2-0.1-0.4-0.2-0.6C58.9,112.1,58.6,112,58.4,112 M56.4,111.2h2.1
	c0.5,0,0.9,0.2,1.2,0.5c0.3,0.3,0.5,0.7,0.5,1.2v2.8c0,0.5-0.2,0.9-0.5,1.2c-0.3,0.3-0.7,0.5-1.2,0.5h-2.1c-0.5,0-0.9-0.2-1.2-0.5
	c-0.3-0.3-0.5-0.7-0.5-1.2v-2.8c0-0.5,0.2-0.9,0.5-1.2C55.5,111.4,55.9,111.2,56.4,111.2z"/>
<path d="M58.4,118.9h-2.1c-0.2,0-0.4,0.1-0.6,0.2c-0.1,0.1-0.2,0.4-0.2,0.6v2.8c0,0.2,0.1,0.4,0.2,0.6c0.2,0.1,0.4,0.2,0.6,0.2h2.1
	c0.2,0,0.4-0.1,0.6-0.2c0.1-0.2,0.2-0.4,0.2-0.6v-2.8c0-0.2-0.1-0.4-0.2-0.6C58.9,119,58.6,118.9,58.4,118.9 M56.4,118h2.1
	c0.5,0,0.9,0.2,1.2,0.5c0.3,0.3,0.5,0.7,0.5,1.2v2.8c0,0.5-0.2,0.9-0.5,1.2c-0.3,0.3-0.7,0.5-1.2,0.5h-2.1c-0.5,0-0.9-0.2-1.2-0.5
	c-0.3-0.3-0.5-0.7-0.5-1.2v-2.8c0-0.5,0.2-0.9,0.5-1.2C55.5,118.2,55.9,118,56.4,118z"/>
<path d="M56.4,125h2.1c0.5,0,0.9,0.2,1.2,0.5c0.3,0.3,0.5,0.7,0.5,1.2v2.5h-0.9v-2.5c0-0.2-0.1-0.4-0.2-0.6
	c-0.1-0.1-0.4-0.2-0.6-0.2h-2.1c-0.2,0-0.4,0.1-0.6,0.2c-0.1,0.1-0.2,0.4-0.2,0.6v2.5h-0.9v-2.5c0-0.5,0.2-0.9,0.5-1.2
	C55.5,125.2,55.9,125,56.4,125"/>
<path d="M57.1,109.3c0-0.2,0.2-0.4,0.4-0.4s0.4,0.2,0.4,0.4v3.4c0,0.2-0.2,0.4-0.4,0.4s-0.4-0.2-0.4-0.4V109.3z"/>
<path d="M57.1,115.7c0-0.2,0.2-0.4,0.4-0.4s0.4,0.2,0.4,0.4v3.8c0,0.2-0.2,0.4-0.4,0.4s-0.4-0.2-0.4-0.4V115.7z"/>
<path d="M57.1,122.6c0-0.2,0.2-0.4,0.4-0.4s0.4,0.2,0.4,0.4v3.8c0,0.2-0.2,0.4-0.4,0.4s-0.4-0.2-0.4-0.4V122.6z"/>
<g>
	<path d="M248,8.9l0,2.9l1.4,0l-0.6,82l1.5-86c0-0.6-0.5-1.1-1-1.1L100.2,2.7c-0.3,0-0.6,0.1-0.8,0.3c-0.2,0.2-0.3,0.5-0.3,0.8
		l0.3,200.8l2.1,0.5L101.2,4.9L248,8.9z"/>
	<path d="M244.7,197.9l-0.1,3.7l-137.8,14.3l0.2,1.8l6.4-0.8l1.3,0.3l131.1-13.6c0.5-0.1,0.9-0.5,1-1l0.1-4.8L244.7,197.9z"/>
</g>
<path class="st2" d="M132.5,102.1l-2-3.9c-0.7-1.5-1.8-1.7-2.4-0.5l-2.5,5c-0.6,1.2-0.5,3.3,0.3,4.8l2,3.9c0.7,1.5,1.8,1.7,2.4,0.5
	l2.5-5C133.3,105.8,133.2,103.6,132.5,102.1z M131.8,107.1l-1.9,3.7c-0.4,0.9-1.3,0.7-1.8-0.4l-1.5-2.9c-0.6-1.1-0.6-2.7-0.2-3.6
	l1.9-3.7c0.4-0.9,1.3-0.7,1.8,0.4l1.5,2.9C132.2,104.7,132.3,106.3,131.8,107.1z"/>
<path class="st2" d="M129.2,98c0.6,0,1.1,0.5,1.1,1.2c0,0.7-0.5,1.2-1.1,1.2c-0.6,0-1.1-0.5-1.1-1.2C128.1,98.6,128.5,98,129.2,98"
	/>
<path class="st3" d="M52.6,84.2l-2.7,0c-0.9,0.1-1.5,0.2-1.8,0.5c-0.6,0.5-0.5,1.4-0.6,3l-0.1,3.9c0,1.8,0.3,2.7,0.6,2.6
	c0.9-0.1,1.2-3.4,1.8-2.9c0,0.4,0,0.9,0,1.3l0.4,9.4c0.1,2.4,2.4,3.9,2.4,0.7L52.6,84.2z"/>
<path class="st2" d="M57.7,231.1l-1.9-1.1l-1.9,1.1l-1.9,1.1v2.2v2.2l1.9,1.1l1.9,1.1l1.9-1.1l1.9-1.1v-2.2v-2.2L57.7,231.1z
	 M55.6,236.6c-1.3,0-2.4-1-2.4-2.3s1.1-2.3,2.4-2.3c1.3,0,2.4,1,2.4,2.3S56.9,236.6,55.6,236.6z"/>
<polygon class="st0" points="31.2,150.6 30.9,132.8 57.3,133 57.7,151.2 "/>
<polygon class="st0" points="57.7,151.2 57.3,133 61,132.2 61.3,150.4 "/>
<polygon class="st0" points="61,132.2 57.3,133 30.9,132.8 34.6,132.1 "/>
<path class="st4" d="M183.2,42.9c-0.4,0-0.7,0.1-0.9,0.3c-0.4,0.3-1,1.7-1.3,2.3c-1,2-2,3.9-3,5.9c-0.1,0.2-0.1,0.3-0.2,0.4
	c-0.3,0.5-0.5,1.1-0.8,1.6c-0.3,0.5-0.5,1.1-0.8,1.6c-1.1,2.3-2.3,4.6-3.4,7c-0.1,0.1-0.1,0.3-0.2,0.4c-1,2.1-2,4.2-3,6.3
	c0,0.1-0.1,0.1-0.1,0.2c-0.7,1.5-1.4,3-2.1,4.5c-0.4,0.8-0.8,1.7-1.2,2.6c-0.1,0.3-0.3,0.6-0.4,0.9c-0.1,0.3-0.3,0.6-0.4,0.9
	c-0.5,1.1-1.4,2.5-0.7,3.5c0.1,0.1,0.1,0.1,0.2,0.2c0.5,0.5,1.3,0.3,1.9,0.3c5.5-0.2,11-0.3,16.5-0.5c5.5-0.2,11-0.3,16.5-0.5
	c0.7,0,1.3,0,1.9-0.4c0.2-0.1,0.4-0.5,0.4-0.8c0.1-0.7-0.3-1.2-0.6-1.7c-0.3-0.5-0.5-1-0.8-1.5c0-0.1,0-0.1-0.1-0.2
	c-0.3-0.6-0.8-1.5-1.1-2.1c-0.7-1.3-1.4-2.6-2-3.9c0-0.1-0.1-0.1-0.1-0.2c-0.5-1-1.1-2.1-1.6-3.1c0-0.1-0.1-0.1-0.1-0.2
	c-0.4-0.8-1-1.9-1.4-2.8c-0.3-0.5-0.5-1.1-0.8-1.6c-0.3-0.7-0.9-1.8-1.2-2.4c-0.4-0.7-0.8-1.7-1.2-2.4c-1.6-3.2-3.1-6.3-4.7-9.6
	c0-0.1-0.1-0.1-0.1-0.2c-0.2-0.5-0.5-1-0.7-1.5c-0.1-0.1-0.1-0.3-0.2-0.4c-0.1-0.3-0.3-0.6-0.4-0.8c-0.1-0.1-0.1-0.3-0.2-0.4
	c-0.1-0.2-0.1-0.3-0.2-0.4c-0.2-0.4-0.3-0.5-0.5-0.8C183.8,43.2,183.5,42.9,183.2,42.9 M167.8,76.4c0.3-0.6,0.9-1.7,1.1-2.2
	c1.2-2.4,2.3-4.8,3.5-7.1c0.1-0.2,0.2-0.3,0.3-0.5c0.4-0.9,1.1-2.4,1.6-3.2c0.2-0.4,0.4-0.7,0.5-1.1c0.3-0.6,0.8-1.5,1.1-2.1
	c0.4-0.9,1.2-2.3,1.6-3.2c0.1-0.2,0.2-0.4,0.3-0.5c0.3-0.6,0.6-1.2,0.9-1.8c0-0.1,0.1-0.2,0.1-0.3c0.1-0.2,0.2-0.3,0.3-0.5
	c0.8-1.5,1.6-3.1,2.4-4.6c0.1-0.2,0.2-0.3,0.3-0.5c0.5-1,1.1-2,1.6-3c0.2,0.4,0.4,0.7,0.5,1.1c0.1,0.1,0.1,0.2,0.1,0.3
	c1.1,2.2,2.1,4.4,3.2,6.5c0.1,0.1,0.1,0.2,0.1,0.3c0.1,0.1,0.1,0.2,0.1,0.3c0.2,0.4,0.4,0.9,0.7,1.3c0.4,0.9,0.9,1.8,1.3,2.7
	c0.2,0.4,0.3,0.7,0.5,1c0.4,0.8,0.9,1.8,1.3,2.6c0.1,0.2,0.2,0.3,0.3,0.5c0.9,1.7,1.8,3.5,2.6,5.2c0.9,1.7,1.8,3.4,2.6,5.1
	c0.5,0.9,1,1.9,1.4,2.7c0.1,0.3,0.3,0.5,0.4,0.8c0.1,0.2,0.2,0.3,0.3,0.5c0.4,0.8,0.9,1.6,1.3,2.4c-5.7,0.1-11.3,0.2-17,0.4
	c-5.7,0.1-11.3,0.3-17,0.4C166.7,78.6,167.2,77.5,167.8,76.4z"/>
<path class="st4" d="M181.2,67c0-0.1,0.7-1.8,0.8-2.1c0.4-1,0.8-2.1,1.2-3.1c0.5-1.2,1.1-2.6,1.5-3.8c0.3-0.7,0.5-1.4,0.8-2
	c-1-0.1-2-0.1-2.9-0.2c-0.2,0.6-0.3,1.2-0.5,1.8c-0.2,0.6-0.3,1.2-0.5,1.8c-0.2,0.6-0.3,1.2-0.5,1.8c-0.2,0.6-0.3,1.2-0.5,1.8
	c-0.3,1.2-0.6,2.4-0.9,3.6c-0.3,1.2-0.6,2.4-0.9,3.6c1.3-0.7,2.6-1.4,3.9-2.1c0.2-0.1,0.4-0.2,0.6-0.3c0,0.3,0,0.7,0,0.9
	c0,0.2,0,0.6,0,0.8c0,0.2,0,0.6,0,0.8c0,0.3,0,0.6,0,0.8c0,0.4,0,1,0,1.3c0,0.6,0.1,0.5-0.2,0.5c-0.3-0.1-0.7-0.1-1-0.2
	c0.4,1.7,0.8,3.3,1.1,5c0.1-0.1,0.8-1.3,1-1.6c0.3-0.5,0.6-1.1,1-1.6c0.1-0.2,0.2-0.4,0.3-0.5c0.2-0.3,0.3-0.4,0.3-0.5c0,0,0,0,0,0
	c-0.4-0.1-0.8-0.2-1.2-0.2c0.4-1.6,0.8-3.2,1.2-4.9c0.3-1.2,0.6-2.4,0.9-3.6c0.1-0.4,0.2-0.8,0.3-1.2c-0.5,0.2-1,0.6-1.5,0.9
	c-0.4,0.2-0.7,0.4-1.1,0.7c-0.5,0.3-1.3,0.8-1.8,1.1c-0.4,0.2-0.7,0.5-1.1,0.7C181.4,66.9,181.3,66.9,181.2,67"/>
<path d="M180.9,109.7c-0.3-0.6-0.5-1.3-0.5-2.1c0-0.8,0.2-1.5,0.5-2.1l0.6,0.7c-0.2,0.4-0.3,0.9-0.3,1.4c0,0.5,0.1,1,0.3,1.4
	L180.9,109.7z M185.1,110.7c-0.5,0.4-1.1,0.7-1.7,0.7c-0.7,0-1.4-0.3-1.9-0.9l0.5-0.7c0.4,0.4,0.9,0.7,1.4,0.7
	c0.4,0,0.9-0.2,1.2-0.5L185.1,110.7z M185.6,105.2c0.4,0.6,0.7,1.5,0.7,2.4c0,0.9-0.3,1.7-0.7,2.4l-0.6-0.7c0.3-0.5,0.4-1.1,0.4-1.7
	c0-0.6-0.1-1.2-0.4-1.7L185.6,105.2z M183.3,103.9c0.6,0,1.2,0.3,1.7,0.7l-0.5,0.7c-0.3-0.3-0.8-0.5-1.2-0.5c-0.5,0-1,0.3-1.4,0.7
	l-0.5-0.7C181.9,104.2,182.6,103.9,183.3,103.9z"/>
<path d="M182.2,108.1l-5.3,0.1l0-0.8l5.3-0.1V108.1z M183.7,108.7l0,6.7l-0.8,0l0-6.7H183.7z M184.3,107.2l5.3-0.1l0,0.8l-5.3,0.1
	V107.2z M183.7,99.7l0,7h-0.8l0-7L183.7,99.7z"/>
<path d="M135.8,45.7c-0.2-0.2-0.4-0.3-0.7-0.3l-21-0.3c-0.3,0-0.6,0.1-0.8,0.4c0,0,0,0.1-0.1,0.1h6.3v1.7l15.2,0.2
	c0.4,0.4,0.6,0.8,0.6,1.1c0,0.2-0.2,0.4-0.5,0.7h-15.3v1.9h-6c0.2,0.1,0.4,0.2,0.6,0.2h21c0.2,0,0.4-0.1,0.6-0.2
	c1.1-0.7,1.7-1.6,1.7-2.5C137.4,47.8,136.9,46.8,135.8,45.7z"/>
<path d="M111.6,45.6l0.1-36l1.2,0v36h2.1V8.5c0-0.6-0.5-1.1-1.1-1.1l-3.4,0c-0.3,0-0.6,0.1-0.8,0.3c-0.2,0.2-0.3,0.5-0.3,0.8
	l-0.1,37.1H111.6z"/>
<path d="M119.4,44.6h-11.8c-0.6,0-1.1,0.5-1.1,1.1v1.3h2c0,0,0.1,0,0.1,0v-0.3h9.7v3.5H109c-0.2,0.1-0.3,0.1-0.5,0.1h-2v0.9
	c0,0.6,0.5,1.1,1.1,1.1h11.8c0.6,0,1.1-0.5,1.1-1.1v-5.7C120.5,45,120,44.6,119.4,44.6z"/>
<path class="st0" d="M105.5,46.9h3c0.6,0,1.1,0.5,1.1,1.1v1.1c0,0.6-0.5,1.1-1.1,1.1h-3c-0.6,0-1.1-0.5-1.1-1.1v-1.1
	C104.4,47.5,104.9,46.9,105.5,46.9z"/>
<path d="M136,167c-0.2-0.2-0.5-0.3-0.7-0.2l-21,1.2c-0.3,0-0.6,0.2-0.8,0.4c0,0-0.1,0.1-0.1,0.1l6.4-0.4v1.7l15.2-0.8
	c0.4,0.4,0.6,0.7,0.6,0.9c0,0.2-0.2,0.5-0.6,0.8l-15.2,1.1v1.9l-6,0.4c0.2,0.1,0.3,0.2,0.5,0.2c0,0,0,0,0.1,0l21-1.5
	c0.2,0,0.4-0.1,0.6-0.2c1.1-0.8,1.7-1.7,1.7-2.7C137.6,168.9,137.1,167.9,136,167z"/>
<g>
	<polygon points="113,168.5 115.1,168.4 115.1,51.3 113,51.3 	"/>
	<path d="M249.3,10.8L114,7.5c-0.3,0-0.6,0.1-0.8,0.3S113,8.3,113,8.5v37.1h2.1v-36l133.1,3.3l-1.5,183.7l-131.7,11.4V174l-2.1,0.1
		v35.1c0,0.3,0.1,0.6,0.3,0.8c0.2,0.2,0.5,0.3,0.7,0.3c0,0,0.1,0,0.1,0l133.8-11.6c0.5,0,1-0.5,1-1l1.5-185.8
		C250.3,11.3,249.9,10.8,249.3,10.8z"/>
</g>
<g>
	<polygon points="115.1,168.4 115.1,51.3 113,51.3 113,168.5 	"/>
	<path d="M113,174.2V208l-1.5-0.2l0-33.6l-2.1,0.1l0,34.3c0,0.5,0.4,1,0.9,1.1l3.6,0.5c0,0,0.1,0,0.1,0c0.3,0,0.5-0.1,0.7-0.3
		c0.2-0.2,0.4-0.5,0.4-0.8V174L113,174.2z"/>
	<polygon points="111.5,168.6 111.6,64.2 111.6,51.3 109.5,51.3 109.4,64.2 109.4,168.8 	"/>
</g>
<path d="M120.4,167.3c-0.2-0.2-0.5-0.3-0.8-0.3l-11.8,0.8c-0.6,0-1,0.5-1,1.1v1.4l2-0.1c0,0,0.1,0,0.1,0v-0.3l9.7-0.7v3.5l-9.3,0.7
	c-0.2,0.1-0.3,0.2-0.5,0.2l-2,0.1v0.8c0,0.3,0.1,0.6,0.3,0.8c0.2,0.2,0.5,0.3,0.7,0.3c0,0,0,0,0.1,0l11.8-0.8c0.6,0,1-0.5,1-1.1V168
	C120.7,167.7,120.6,167.5,120.4,167.3z"/>
<path class="st0" d="M105.8,170.3l3-0.2c0.6,0,1.1,0.4,1.1,1.1v1.1c0,0.6-0.5,1.2-1.1,1.2l-3,0.2c-0.6,0-1.1-0.4-1.1-1.1v-1.1
	C104.6,170.9,105.1,170.4,105.8,170.3z"/>
</svg>
