<?xml version="1.0" encoding="utf-8"?>
<!-- Generator: Adobe Illustrator 22.0.1, SVG Export Plug-In . SVG Version: 6.00 Build 0)  -->
<svg version="1.1" id="Слой_1" xmlns="http://www.w3.org/2000/svg" xmlns:xlink="http://www.w3.org/1999/xlink" x="0px" y="0px"
	 viewBox="0 0 16 15" style="enable-background:new 0 0 16 15;" xml:space="preserve">
<path d="M2.1,5.6c0.2-0.2,0.5-0.2,0.7,0c0,0,0,0,0,0l4.6,4.6V0.5C7.5,0.2,7.7,0,8,0s0.5,0.2,0.5,0.5v9.8l4.6-4.6
	c0.2-0.2,0.5-0.2,0.7,0c0.2,0.2,0.2,0.5,0,0.7l-5.5,5.5c-0.2,0.2-0.5,0.2-0.7,0c0,0,0,0,0,0L2.1,6.4C2,6.2,2,5.8,2.1,5.6z M0,14.5
	C0,14.8,0.2,15,0.5,15c0,0,0,0,0,0h15c0.3,0,0.5-0.2,0.5-0.5S15.8,14,15.5,14h-15C0.2,14,0,14.2,0,14.5C0,14.5,0,14.5,0,14.5z"/>
</svg>
